<svg xmlns="http://www.w3.org/2000/svg" fill="none" viewBox="0 0 600 600"><g clip-path="url(#devicon-jwt-icon-1-a)"><path fill="#fff" d="M345.3 161.4 344.7 0h-90l.6 161.4 45 61.8zm-90 276.6v162h90V438l-45-61.8z"/><path fill="#00F2E6" d="m345.3 438 94.8 130.8 72.6-52.8-94.8-130.8-72.6-23.4zm-90-276.6L159.9 30.6 87.3 83.4l94.8 130.8 73.2 23.4z"/><path fill="#00B9F1" d="M182.1 214.2 28.5 164.4.9 249.6 154.5 300l72.6-24zm190.8 109.2 45 61.8L571.5 435l27.6-85.2L445.5 300z"/><path fill="#D63AFF" d="m445.5 300 153.6-50.4-27.6-85.2-153.6 49.8-45 61.8zm-291 0L.9 349.8 28.5 435l153.6-49.8 45-61.8z"/><path fill="#FB015B" d="M182.1 385.2 87.3 516l72.6 52.8L255.3 438v-76.2zm235.8-171 94.8-130.8-72.6-52.8-94.8 130.8v76.2z"/></g><defs><clipPath id="devicon-jwt-icon-1-a"><path fill="#fff" d="M0 0h600v600H0z"/></clipPath></defs></svg>